STARTFONT 2.1
FONT -DEC-Terminal-Bold-R-Narrow--28-200-100-100-C-120-DEC-DECtech
SIZE 20 100 100
FONTBOUNDINGBOX 12 28 0 -6

STARTPROPERTIES 25
CHARSET_REGISTRY "DEC"
CHARSET_ENCODING "DECtech"
CAP_HEIGHT 16
X_HEIGHT 12
AVERAGE_WIDTH 120
FONTNAME_REGISTRY ""
FAMILY_NAME "Terminal"
FOUNDRY "DEC"
WEIGHT_NAME "Bold"
SETWIDTH_NAME "Narrow"
SLANT "R"
ADD_STYLE_NAME ""
PIXEL_SIZE 28
POINT_SIZE 200
RESOLUTION_X 100
RESOLUTION_Y 100
SPACING "C"
CHARSET_COLLECTIONS "DEC-DECtech"
FULL_NAME "Terminal Bold Narrow"
COPYRIGHT "Copyright (c) 1990 Digital Equipment Corp. All rights reserved."
WEIGHT 10
QUAD_WIDTH 12
DEFAULT_CHAR 159
FONT_DESCENT 4
FONT_ASCENT 22
ENDPROPERTIES

CHARS 181

STARTCHAR space
ENCODING 32
SWIDTH 430 0
DWIDTH 12 0
BBX 1 1 0 0
BITMAP
00
ENDCHAR

STARTCHAR exclam
ENCODING 33
SWIDTH 430 0
DWIDTH 12 0
BBX 3 16 4 0
BITMAP
E0
E0
E0
E0
E0
E0
E0
E0
E0
E0
E0
E0
00
E0
E0
E0
ENDCHAR

STARTCHAR quotedbl
ENCODING 34
SWIDTH 430 0
DWIDTH 12 0
BBX 8 6 2 12
BITMAP
E7
E7
E7
E7
E7
E7
ENDCHAR

STARTCHAR numbersign
ENCODING 35
SWIDTH 430 0
DWIDTH 12 0
BBX 10 14 1 1
BITMAP
7380
7380
7380
7380
FFC0
FFC0
7380
7380
FFC0
FFC0
7380
7380
7380
7380
ENDCHAR

STARTCHAR dollar
ENCODING 36
SWIDTH 430 0
DWIDTH 12 0
BBX 10 18 1 -1
BITMAP
0C00
0C00
3F00
7F80
EDC0
EDC0
ECC0
FC00
7F00
3F80
0FC0
CDC0
EDC0
EDC0
7F80
3F00
0C00
0C00
ENDCHAR

STARTCHAR percent
ENCODING 37
SWIDTH 430 0
DWIDTH 12 0
BBX 11 16 1 0
BITMAP
3000
7800
ECE0
EDE0
7BE0
37C0
0F80
1F00
3E00
7C00
FB00
F780
EEC0
0EC0
0780
0300
ENDCHAR

STARTCHAR ampersand
ENCODING 38
SWIDTH 430 0
DWIDTH 12 0
BBX 10 16 1 0
BITMAP
1E00
3F00
3300
3300
3300
3F00
1E00
3C00
7EC0
F7C0
E380
E300
E700
FF80
7DC0
3CC0
ENDCHAR

STARTCHAR quoteright
ENCODING 39
SWIDTH 430 0
DWIDTH 12 0
BBX 4 5 4 13
BITMAP
70
70
70
E0
C0
ENDCHAR

STARTCHAR parenleft
ENCODING 40
SWIDTH 430 0
DWIDTH 12 0
BBX 7 20 3 -2
BITMAP
0E
1C
38
38
70
70
E0
E0
E0
E0
E0
E0
E0
E0
70
70
38
38
1C
0E
ENDCHAR

STARTCHAR parenright
ENCODING 41
SWIDTH 430 0
DWIDTH 12 0
BBX 7 20 3 -2
BITMAP
E0
70
38
38
1C
1C
0E
0E
0E
0E
0E
0E
0E
0E
1C
1C
38
38
70
E0
ENDCHAR

STARTCHAR asterisk
ENCODING 42
SWIDTH 430 0
DWIDTH 12 0
BBX 8 10 2 6
BITMAP
18
DB
FF
FF
3C
3C
FF
FF
DB
18
ENDCHAR

STARTCHAR plus
ENCODING 43
SWIDTH 430 0
DWIDTH 12 0
BBX 11 11 0 3
BITMAP
0E00
0E00
0E00
0E00
FFE0
FFE0
FFE0
0E00
0E00
0E00
0E00
ENDCHAR

STARTCHAR comma
ENCODING 44
SWIDTH 430 0
DWIDTH 12 0
BBX 5 5 4 -2
BITMAP
38
38
38
70
E0
ENDCHAR

STARTCHAR minus
ENCODING 45
SWIDTH 430 0
DWIDTH 12 0
BBX 10 3 1 7
BITMAP
FFC0
FFC0
FFC0
ENDCHAR

STARTCHAR period
ENCODING 46
SWIDTH 430 0
DWIDTH 12 0
BBX 3 3 4 0
BITMAP
E0
E0
E0
ENDCHAR

STARTCHAR slash
ENCODING 47
SWIDTH 430 0
DWIDTH 12 0
BBX 10 18 1 -1
BITMAP
01C0
01C0
03C0
0380
0380
0700
0700
0E00
0E00
1C00
1C00
3800
3800
7000
7000
F000
E000
E000
ENDCHAR

STARTCHAR zero
ENCODING 48
SWIDTH 430 0
DWIDTH 12 0
BBX 10 16 1 0
BITMAP
1E00
3F00
7380
7380
E1C0
E1C0
E1C0
E1C0
E1C0
E1C0
E1C0
E1C0
7380
7380
3F00
1E00
ENDCHAR

STARTCHAR one
ENCODING 49
SWIDTH 430 0
DWIDTH 12 0
BBX 9 16 1 0
BITMAP
0C00
1C00
3C00
7C00
FC00
DC00
1C00
1C00
1C00
1C00
1C00
1C00
1C00
1C00
FF80
FF80
ENDCHAR

STARTCHAR two
ENCODING 50
SWIDTH 430 0
DWIDTH 12 0
BBX 9 16 1 0
BITMAP
3E00
7F00
E380
E380
E380
0380
0780
0F00
1E00
1C00
3800
7800
7000
F380
FF80
FF80
ENDCHAR

STARTCHAR three
ENCODING 51
SWIDTH 430 0
DWIDTH 12 0
BBX 9 16 1 0
BITMAP
3E00
7F00
E780
E380
0380
0780
3F00
3F00
0780
0380
0380
0380
E380
E780
7F00
3E00
ENDCHAR

STARTCHAR four
ENCODING 52
SWIDTH 430 0
DWIDTH 12 0
BBX 9 16 2 0
BITMAP
0F00
0F00
1F00
1F00
3F00
3700
7700
7700
6700
E700
FF80
FF80
0700
0700
0700
0700
ENDCHAR

STARTCHAR five
ENCODING 53
SWIDTH 430 0
DWIDTH 12 0
BBX 9 16 1 0
BITMAP
FF80
FF80
E000
E000
E000
FE00
FF00
E780
C380
0380
0380
0380
E380
E780
7F00
3E00
ENDCHAR

STARTCHAR six
ENCODING 54
SWIDTH 430 0
DWIDTH 12 0
BBX 9 16 1 0
BITMAP
3E00
7F00
7380
E380
E000
E000
FE00
FF00
F780
E380
E380
E380
E380
F780
7F00
3E00
ENDCHAR

STARTCHAR seven
ENCODING 55
SWIDTH 430 0
DWIDTH 12 0
BBX 9 16 2 0
BITMAP
FF80
FF80
0380
0380
0700
0700
0E00
0E00
1C00
1C00
3800
3800
7000
7000
E000
E000
ENDCHAR

STARTCHAR eight
ENCODING 56
SWIDTH 430 0
DWIDTH 12 0
BBX 9 16 1 0
BITMAP
3E00
7F00
E380
E380
E380
E380
7F00
7F00
F780
E380
E380
E380
E380
F780
7F00
3E00
ENDCHAR

STARTCHAR nine
ENCODING 57
SWIDTH 430 0
DWIDTH 12 0
BBX 9 16 1 0
BITMAP
3E00
7F00
F780
E380
E380
E380
E380
F780
7F80
3F80
0380
0380
E380
E700
7F00
3E00
ENDCHAR

STARTCHAR colon
ENCODING 58
SWIDTH 430 0
DWIDTH 12 0
BBX 3 10 4 0
BITMAP
E0
E0
E0
00
00
00
00
E0
E0
E0
ENDCHAR

STARTCHAR semicolon
ENCODING 59
SWIDTH 430 0
DWIDTH 12 0
BBX 5 12 2 -2
BITMAP
38
38
38
00
00
00
00
38
38
38
70
E0
ENDCHAR

STARTCHAR less
ENCODING 60
SWIDTH 430 0
DWIDTH 12 0
BBX 10 14 1 0
BITMAP
03C0
0780
0F00
1E00
3C00
7800
F000
F000
7800
3C00
1E00
0F00
0780
03C0
ENDCHAR

STARTCHAR equal
ENCODING 61
SWIDTH 430 0
DWIDTH 12 0
BBX 10 8 1 4
BITMAP
FFC0
FFC0
FFC0
0000
0000
FFC0
FFC0
FFC0
ENDCHAR

STARTCHAR greater
ENCODING 62
SWIDTH 430 0
DWIDTH 12 0
BBX 10 14 1 0
BITMAP
F000
7800
3C00
1E00
0F00
0780
03C0
03C0
0780
0F00
1E00
3C00
7800
F000
ENDCHAR

STARTCHAR question
ENCODING 63
SWIDTH 430 0
DWIDTH 12 0
BBX 10 16 1 0
BITMAP
3F00
7F80
F3C0
E1C0
E1C0
03C0
0780
0F00
1E00
1C00
1C00
1C00
0000
1C00
1C00
1C00
ENDCHAR

STARTCHAR at
ENCODING 64
SWIDTH 430 0
DWIDTH 12 0
BBX 11 16 1 0
BITMAP
3F00
7F80
F3C0
E1E0
E7E0
EFE0
ECE0
ECE0
ECE0
EFE0
E7E0
E000
E000
F000
7F00
3F00
ENDCHAR

STARTCHAR A
ENCODING 65
SWIDTH 430 0
DWIDTH 12 0
BBX 10 16 1 0
BITMAP
0C00
0C00
1E00
3F00
3F00
7380
7380
6180
E1C0
FFC0
FFC0
E1C0
E1C0
E1C0
E1C0
E1C0
ENDCHAR

STARTCHAR B
ENCODING 66
SWIDTH 430 0
DWIDTH 12 0
BBX 10 16 1 0
BITMAP
FF00
FF80
E3C0
E1C0
E1C0
E3C0
FF80
FF80
E3C0
E1C0
E1C0
E1C0
E1C0
E3C0
FF80
FF00
ENDCHAR

STARTCHAR C
ENCODING 67
SWIDTH 430 0
DWIDTH 12 0
BBX 10 16 1 0
BITMAP
3F00
7F80
F3C0
E1C0
E000
E000
E000
E000
E000
E000
E000
E000
E1C0
F3C0
7F80
3F00
ENDCHAR

STARTCHAR D
ENCODING 68
SWIDTH 430 0
DWIDTH 12 0
BBX 10 16 1 0
BITMAP
FF00
FF80
E3C0
E1C0
E1C0
E1C0
E1C0
E1C0
E1C0
E1C0
E1C0
E1C0
E1C0
E3C0
FF80
FF00
ENDCHAR

STARTCHAR E
ENCODING 69
SWIDTH 430 0
DWIDTH 12 0
BBX 10 16 1 0
BITMAP
FFC0
FFC0
E000
E000
E000
E000
E000
FF00
FF00
E000
E000
E000
E000
E000
FFC0
FFC0
ENDCHAR

STARTCHAR F
ENCODING 70
SWIDTH 430 0
DWIDTH 12 0
BBX 10 16 1 0
BITMAP
FFC0
FFC0
E000
E000
E000
E000
E000
FF00
FF00
E000
E000
E000
E000
E000
E000
E000
ENDCHAR

STARTCHAR G
ENCODING 71
SWIDTH 430 0
DWIDTH 12 0
BBX 10 16 1 0
BITMAP
3F00
7F80
F3C0
E1C0
E000
E000
E000
E000
E3C0
E3C0
E1C0
E1C0
E1C0
F3C0
7F80
3F00
ENDCHAR

STARTCHAR H
ENCODING 72
SWIDTH 430 0
DWIDTH 12 0
BBX 10 16 1 0
BITMAP
E1C0
E1C0
E1C0
E1C0
E1C0
E1C0
E1C0
FFC0
FFC0
E1C0
E1C0
E1C0
E1C0
E1C0
E1C0
E1C0
ENDCHAR

STARTCHAR I
ENCODING 73
SWIDTH 430 0
DWIDTH 12 0
BBX 9 16 2 0
BITMAP
FF80
FF80
1C00
1C00
1C00
1C00
1C00
1C00
1C00
1C00
1C00
1C00
1C00
1C00
FF80
FF80
ENDCHAR

STARTCHAR J
ENCODING 74
SWIDTH 430 0
DWIDTH 12 0
BBX 10 16 1 0
BITMAP
0FC0
0FC0
0380
0380
0380
0380
0380
0380
0380
0380
E380
E380
E380
F780
7F00
3E00
ENDCHAR

STARTCHAR K
ENCODING 75
SWIDTH 430 0
DWIDTH 12 0
BBX 11 16 1 0
BITMAP
E0E0
E1E0
E3C0
E780
EF00
FE00
FC00
F800
F800
FC00
FE00
EF00
E780
E3C0
E1E0
E0E0
ENDCHAR

STARTCHAR L
ENCODING 76
SWIDTH 430 0
DWIDTH 12 0
BBX 10 16 1 0
BITMAP
E000
E000
E000
E000
E000
E000
E000
E000
E000
E000
E000
E000
E000
E000
FFC0
FFC0
ENDCHAR

STARTCHAR M
ENCODING 77
SWIDTH 430 0
DWIDTH 12 0
BBX 10 16 1 0
BITMAP
E1C0
E1C0
E1C0
F3C0
F3C0
FFC0
FFC0
EDC0
EDC0
E1C0
E1C0
E1C0
E1C0
E1C0
E1C0
E1C0
ENDCHAR

STARTCHAR N
ENCODING 78
SWIDTH 430 0
DWIDTH 12 0
BBX 10 16 1 0
BITMAP
E1C0
E1C0
F1C0
F1C0
F9C0
F9C0
F9C0
EDC0
EDC0
E7C0
E7C0
E7C0
E3C0
E3C0
E1C0
E1C0
ENDCHAR

STARTCHAR O
ENCODING 79
SWIDTH 430 0
DWIDTH 12 0
BBX 10 16 1 0
BITMAP
3F00
7F80
F3C0
E1C0
E1C0
E1C0
E1C0
E1C0
E1C0
E1C0
E1C0
E1C0
E1C0
F3C0
7F80
3F00
ENDCHAR

STARTCHAR P
ENCODING 80
SWIDTH 430 0
DWIDTH 12 0
BBX 10 16 1 0
BITMAP
FF00
FF80
E3C0
E1C0
E1C0
E1C0
E1C0
E3C0
FF80
FF00
E000
E000
E000
E000
E000
E000
ENDCHAR

STARTCHAR Q
ENCODING 81
SWIDTH 430 0
DWIDTH 12 0
BBX 10 18 1 -2
BITMAP
3F00
7F80
F3C0
E1C0
E1C0
E1C0
E1C0
E1C0
E1C0
E1C0
E1C0
E1C0
EDC0
FFC0
7F80
3F00
0380
01C0
ENDCHAR

STARTCHAR R
ENCODING 82
SWIDTH 430 0
DWIDTH 12 0
BBX 11 16 1 0
BITMAP
FF00
FF80
E3C0
E1C0
E1C0
E1C0
E1C0
E3C0
FF80
FF00
EE00
E700
E780
E380
E3C0
E1E0
ENDCHAR

STARTCHAR S
ENCODING 83
SWIDTH 430 0
DWIDTH 12 0
BBX 10 16 1 0
BITMAP
3F00
7F80
F3C0
E1C0
E000
F000
FF00
7F80
3FC0
03C0
01C0
01C0
E1C0
F3C0
7F80
3F00
ENDCHAR

STARTCHAR T
ENCODING 84
SWIDTH 430 0
DWIDTH 12 0
BBX 9 16 2 0
BITMAP
FF80
FF80
1C00
1C00
1C00
1C00
1C00
1C00
1C00
1C00
1C00
1C00
1C00
1C00
1C00
1C00
ENDCHAR

STARTCHAR U
ENCODING 85
SWIDTH 430 0
DWIDTH 12 0
BBX 10 16 1 0
BITMAP
E1C0
E1C0
E1C0
E1C0
E1C0
E1C0
E1C0
E1C0
E1C0
E1C0
E1C0
E1C0
E1C0
F3C0
7F80
3F00
ENDCHAR

STARTCHAR V
ENCODING 86
SWIDTH 430 0
DWIDTH 12 0
BBX 10 16 1 0
BITMAP
E1C0
E1C0
E1C0
E1C0
E1C0
E1C0
E1C0
E1C0
E1C0
E1C0
7380
7F80
3F00
1E00
0C00
0C00
ENDCHAR

STARTCHAR W
ENCODING 87
SWIDTH 430 0
DWIDTH 12 0
BBX 10 16 1 0
BITMAP
E1C0
E1C0
E1C0
E1C0
E1C0
E1C0
EDC0
EDC0
EDC0
EDC0
EDC0
EDC0
EDC0
FFC0
FFC0
7380
ENDCHAR

STARTCHAR X
ENCODING 88
SWIDTH 430 0
DWIDTH 12 0
BBX 10 16 1 0
BITMAP
E1C0
E1C0
E1C0
7380
7380
3F00
3F00
1E00
1E00
3F00
3F00
7380
7380
E1C0
E1C0
E1C0
ENDCHAR

STARTCHAR Y
ENCODING 89
SWIDTH 430 0
DWIDTH 12 0
BBX 10 16 1 0
BITMAP
E1C0
E1C0
E1C0
E1C0
E1C0
F3C0
7380
7F80
3F00
1E00
1E00
1E00
1E00
1E00
1E00
1E00
ENDCHAR

STARTCHAR Z
ENCODING 90
SWIDTH 430 0
DWIDTH 12 0
BBX 10 16 1 0
BITMAP
FFC0
FFC0
01C0
01C0
03C0
0780
0F00
0E00
1C00
3C00
7800
F000
E000
E000
FFC0
FFC0
ENDCHAR

STARTCHAR bracketleft
ENCODING 91
SWIDTH 430 0
DWIDTH 12 0
BBX 7 20 3 -2
BITMAP
FE
FE
E0
E0
E0
E0
E0
E0
E0
E0
E0
E0
E0
E0
E0
E0
E0
E0
FE
FE
ENDCHAR

STARTCHAR backslash
ENCODING 92
SWIDTH 430 0
DWIDTH 12 0
BBX 10 18 1 -1
BITMAP
E000
E000
F000
7000
7000
3800
3800
1C00
1C00
0E00
0E00
0700
0700
0380
0380
03C0
01C0
01C0
ENDCHAR

STARTCHAR bracketright
ENCODING 93
SWIDTH 430 0
DWIDTH 12 0
BBX 7 20 2 -2
BITMAP
FE
FE
0E
0E
0E
0E
0E
0E
0E
0E
0E
0E
0E
0E
0E
0E
0E
0E
FE
FE
ENDCHAR

STARTCHAR asciicircum
ENCODING 94
SWIDTH 430 0
DWIDTH 12 0
BBX 10 6 1 6
BITMAP
0C00
1E00
3F00
7F80
F3C0
E1C0
ENDCHAR

STARTCHAR ldblank
ENCODING 95
SWIDTH 430 0
DWIDTH 12 0
BBX 1 1 0 0
BITMAP
00
ENDCHAR

STARTCHAR diamond
ENCODING 96
SWIDTH 430 0
DWIDTH 12 0
BBX 10 10 1 2
BITMAP
0C00
1E00
3F00
7F80
FFC0
FFC0
7F80
3F00
1E00
0C00
ENDCHAR

STARTCHAR checkerboard
ENCODING 97
SWIDTH 430 0
DWIDTH 12 0
BBX 12 28 0 -6
BITMAP
AAA0
5550
AAA0
5550
AAA0
5550
AAA0
5550
AAA0
5550
AAA0
5550
AAA0
5550
AAA0
5550
AAA0
5550
AAA0
5550
AAA0
5550
AAA0
5550
AAA0
5550
AAA0
5550
ENDCHAR

STARTCHAR HT
ENCODING 98
SWIDTH 430 0
DWIDTH 12 0
BBX 9 18 2 -1
BITMAP
CC00
CC00
CC00
FC00
FC00
CC00
CC00
CC00
0000
0000
1F80
1F80
0600
0600
0600
0600
0600
0600
ENDCHAR

STARTCHAR FF
ENCODING 99
SWIDTH 430 0
DWIDTH 12 0
BBX 7 18 3 -1
BITMAP
F0
F0
C0
F0
F0
C0
C0
C0
00
00
3E
3E
30
3C
3C
30
30
30
ENDCHAR

STARTCHAR CR
ENCODING 100
SWIDTH 430 0
DWIDTH 12 0
BBX 8 18 2 -1
BITMAP
3C
7E
E6
C0
C0
E6
7E
3C
00
00
7C
7E
66
66
7C
7E
67
63
ENDCHAR

STARTCHAR LF
ENCODING 101
SWIDTH 430 0
DWIDTH 12 0
BBX 7 18 3 -1
BITMAP
C0
C0
C0
C0
C0
C0
F8
F8
00
00
3E
3E
30
3C
3C
30
30
30
ENDCHAR

STARTCHAR degree
ENCODING 102
SWIDTH 430 0
DWIDTH 12 0
BBX 6 6 3 12
BITMAP
30
78
CC
CC
78
30
ENDCHAR

STARTCHAR plusminus
ENCODING 103
SWIDTH 430 0
DWIDTH 12 0
BBX 9 15 1 0
BITMAP
1C00
1C00
1C00
1C00
FF80
FF80
FF80
1C00
1C00
1C00
1C00
0000
FF80
FF80
FF80
ENDCHAR

STARTCHAR NL
ENCODING 104
SWIDTH 430 0
DWIDTH 12 0
BBX 8 18 2 -1
BITMAP
C3
E3
F3
FB
DF
CF
C7
C3
00
00
30
30
30
30
30
30
3F
3F
ENDCHAR

STARTCHAR VT
ENCODING 105
SWIDTH 430 0
DWIDTH 12 0
BBX 8 18 2 -1
BITMAP
C3
C3
C3
E7
66
7E
3C
18
00
00
7F
7F
1C
1C
1C
1C
1C
1C
ENDCHAR

STARTCHAR ldcornsqlr
ENCODING 106
SWIDTH 430 0
DWIDTH 12 0
BBX 7 15 0 7
BITMAP
0E
0E
0E
0E
0E
0E
0E
0E
0E
0E
0E
0E
FE
FE
FE
ENDCHAR

STARTCHAR ldcornsqur
ENCODING 107
SWIDTH 430 0
DWIDTH 12 0
BBX 7 14 0 -4
BITMAP
FE
FE
FE
0E
0E
0E
0E
0E
0E
0E
0E
0E
0E
0E
ENDCHAR

STARTCHAR ldcornsqul
ENCODING 108
SWIDTH 430 0
DWIDTH 12 0
BBX 8 14 4 -4
BITMAP
FF
FF
FF
E0
E0
E0
E0
E0
E0
E0
E0
E0
E0
E0
ENDCHAR

STARTCHAR ldcornsqll
ENCODING 109
SWIDTH 430 0
DWIDTH 12 0
BBX 8 15 4 7
BITMAP
E0
E0
E0
E0
E0
E0
E0
E0
E0
E0
E0
E0
FF
FF
FF
ENDCHAR

STARTCHAR ldcross
ENCODING 110
SWIDTH 430 0
DWIDTH 12 0
BBX 12 26 0 -4
BITMAP
0E00
0E00
0E00
0E00
0E00
0E00
0E00
0E00
0E00
0E00
0E00
0E00
FFF0
FFF0
FFF0
0E00
0E00
0E00
0E00
0E00
0E00
0E00
0E00
0E00
0E00
0E00
ENDCHAR

STARTCHAR ldscan1
ENCODING 111
SWIDTH 430 0
DWIDTH 12 0
BBX 12 3 0 19
BITMAP
FFF0
FFF0
FFF0
ENDCHAR

STARTCHAR ldscan3
ENCODING 112
SWIDTH 430 0
DWIDTH 12 0
BBX 12 3 0 12
BITMAP
FFF0
FFF0
FFF0
ENDCHAR

STARTCHAR ldhorizontal
ENCODING 113
SWIDTH 430 0
DWIDTH 12 0
BBX 12 3 0 7
BITMAP
FFF0
FFF0
FFF0
ENDCHAR

STARTCHAR ldscan7
ENCODING 114
SWIDTH 430 0
DWIDTH 12 0
BBX 12 3 0 2
BITMAP
FFF0
FFF0
FFF0
ENDCHAR

STARTCHAR ldscan9
ENCODING 115
SWIDTH 430 0
DWIDTH 12 0
BBX 12 3 0 -4
BITMAP
FFF0
FFF0
FFF0
ENDCHAR

STARTCHAR ldteelft
ENCODING 116
SWIDTH 430 0
DWIDTH 12 0
BBX 8 26 4 -4
BITMAP
E0
E0
E0
E0
E0
E0
E0
E0
E0
E0
E0
E0
FF
FF
FF
E0
E0
E0
E0
E0
E0
E0
E0
E0
E0
E0
ENDCHAR

STARTCHAR ldteert
ENCODING 117
SWIDTH 430 0
DWIDTH 12 0
BBX 7 26 0 -4
BITMAP
0E
0E
0E
0E
0E
0E
0E
0E
0E
0E
0E
0E
FE
FE
FE
0E
0E
0E
0E
0E
0E
0E
0E
0E
0E
0E
ENDCHAR

STARTCHAR ldteebt
ENCODING 118
SWIDTH 430 0
DWIDTH 12 0
BBX 12 15 0 7
BITMAP
0E00
0E00
0E00
0E00
0E00
0E00
0E00
0E00
0E00
0E00
0E00
0E00
FFF0
FFF0
FFF0
ENDCHAR

STARTCHAR ldteetp
ENCODING 119
SWIDTH 430 0
DWIDTH 12 0
BBX 12 14 0 -4
BITMAP
FFF0
FFF0
FFF0
0E00
0E00
0E00
0E00
0E00
0E00
0E00
0E00
0E00
0E00
0E00
ENDCHAR

STARTCHAR ldvertical
ENCODING 120
SWIDTH 430 0
DWIDTH 12 0
BBX 3 26 4 -4
BITMAP
E0
E0
E0
E0
E0
E0
E0
E0
E0
E0
E0
E0
E0
E0
E0
E0
E0
E0
E0
E0
E0
E0
E0
E0
E0
E0
ENDCHAR

STARTCHAR lessequal
ENCODING 121
SWIDTH 430 0
DWIDTH 12 0
BBX 9 15 2 0
BITMAP
0F00
1E00
3C00
7800
F000
F000
7800
3C00
1E00
0F00
0000
0000
FF80
FF80
FF80
ENDCHAR

STARTCHAR greaterequal
ENCODING 122
SWIDTH 430 0
DWIDTH 12 0
BBX 9 15 2 0
BITMAP
7800
3C00
1E00
0F00
0780
0780
0F00
1E00
3C00
7800
0000
0000
FF80
FF80
FF80
ENDCHAR

STARTCHAR pi
ENCODING 123
SWIDTH 430 0
DWIDTH 12 0
BBX 11 12 0 0
BITMAP
7FE0
7FE0
39C0
39C0
39C0
39C0
39C0
39C0
39C0
39C0
F1C0
E1C0
ENDCHAR

STARTCHAR notequal
ENCODING 124
SWIDTH 430 0
DWIDTH 12 0
BBX 10 12 1 2
BITMAP
0300
0300
FFC0
FFC0
FFC0
0C00
0C00
FFC0
FFC0
FFC0
3000
3000
ENDCHAR

STARTCHAR sterling
ENCODING 125
SWIDTH 430 0
DWIDTH 12 0
BBX 10 16 1 0
BITMAP
0F00
1F80
1DC0
39C0
3800
3800
3800
FF00
FF00
3800
3800
3800
3800
3CC0
7FC0
CF80
ENDCHAR

STARTCHAR periodcentered
ENCODING 126
SWIDTH 430 0
DWIDTH 12 0
BBX 3 3 4 7
BITMAP
E0
E0
E0
ENDCHAR

STARTCHAR Error
ENCODING 159
SWIDTH 430 0
DWIDTH 12 0
BBX 12 25 0 -3
BITMAP
0F80
3FE0
7FE0
7FF0
F9F0
F0F0
F0F0
F000
F800
7C00
3C00
3E00
1F00
0F00
0F80
0780
0780
0780
0000
0000
0780
0780
0780
0780
0780
ENDCHAR

STARTCHAR ldradicalbt
ENCODING 161
SWIDTH 430 0
DWIDTH 12 0
BBX 8 22 0 0
BITMAP
0F
0F
0F
0F
0F
0F
0F
0F
0F
0F
0F
0F
0F
0F
FF
FF
FF
FF
1F
0F
07
03
ENDCHAR

STARTCHAR ldradicaltp
ENCODING 162
SWIDTH 430 0
DWIDTH 12 0
BBX 8 14 4 -4
BITMAP
FF
FF
FF
FF
F0
F0
F0
F0
F0
F0
F0
F0
F0
F0
ENDCHAR

STARTCHAR ldhorizontal
ENCODING 163
SWIDTH 430 0
DWIDTH 12 0
BBX 12 4 0 6
BITMAP
FFF0
FFF0
FFF0
FFF0
ENDCHAR

STARTCHAR ldintegraltp
ENCODING 164
SWIDTH 430 0
DWIDTH 12 0
BBX 8 24 4 -4
BITMAP
3C
7E
7E
FF
F3
F3
F0
F0
F0
F0
F0
F0
F0
F0
F0
F0
F0
F0
F0
F0
F0
F0
F0
F0
ENDCHAR

STARTCHAR ldintegralbt
ENCODING 165
SWIDTH 430 0
DWIDTH 12 0
BBX 8 24 0 -2
BITMAP
0F
0F
0F
0F
0F
0F
0F
0F
0F
0F
0F
0F
0F
0F
0F
0F
0F
0F
CF
CF
FF
7E
7E
3C
ENDCHAR

STARTCHAR ldvertical
ENCODING 166
SWIDTH 430 0
DWIDTH 12 0
BBX 4 26 4 -4
BITMAP
F0
F0
F0
F0
F0
F0
F0
F0
F0
F0
F0
F0
F0
F0
F0
F0
F0
F0
F0
F0
F0
F0
F0
F0
F0
F0
ENDCHAR

STARTCHAR ldbracketlfttp
ENCODING 167
SWIDTH 430 0
DWIDTH 12 0
BBX 8 24 4 -4
BITMAP
FF
FF
FF
FF
F0
F0
F0
F0
F0
F0
F0
F0
F0
F0
F0
F0
F0
F0
F0
F0
F0
F0
F0
F0
ENDCHAR

STARTCHAR ldbracketlftbt
ENCODING 168
SWIDTH 430 0
DWIDTH 12 0
BBX 8 24 4 -2
BITMAP
F0
F0
F0
F0
F0
F0
F0
F0
F0
F0
F0
F0
F0
F0
F0
F0
F0
F0
F0
F0
FF
FF
FF
FF
ENDCHAR

STARTCHAR ldbracketrttp
ENCODING 169
SWIDTH 430 0
DWIDTH 12 0
BBX 8 24 0 -4
BITMAP
FF
FF
FF
FF
0F
0F
0F
0F
0F
0F
0F
0F
0F
0F
0F
0F
0F
0F
0F
0F
0F
0F
0F
0F
ENDCHAR

STARTCHAR ldbracketrtbt
ENCODING 170
SWIDTH 430 0
DWIDTH 12 0
BBX 8 24 0 -2
BITMAP
0F
0F
0F
0F
0F
0F
0F
0F
0F
0F
0F
0F
0F
0F
0F
0F
0F
0F
0F
0F
FF
FF
FF
FF
ENDCHAR

STARTCHAR ldbracelfttp
ENCODING 171
SWIDTH 430 0
DWIDTH 12 0
BBX 8 24 4 -4
BITMAP
3F
7F
FF
FF
F0
F0
F0
F0
F0
F0
F0
F0
F0
F0
F0
F0
F0
F0
F0
F0
F0
F0
F0
F0
ENDCHAR

STARTCHAR ldbracelftbt
ENCODING 172
SWIDTH 430 0
DWIDTH 12 0
BBX 8 24 4 -2
BITMAP
F0
F0
F0
F0
F0
F0
F0
F0
F0
F0
F0
F0
F0
F0
F0
F0
F0
F0
F0
F0
FF
FF
7F
3F
ENDCHAR

STARTCHAR ldbracerttp
ENCODING 173
SWIDTH 430 0
DWIDTH 12 0
BBX 8 24 0 -4
BITMAP
FC
FE
FF
FF
0F
0F
0F
0F
0F
0F
0F
0F
0F
0F
0F
0F
0F
0F
0F
0F
0F
0F
0F
0F
ENDCHAR

STARTCHAR ldbracertbt
ENCODING 174
SWIDTH 430 0
DWIDTH 12 0
BBX 8 24 0 -2
BITMAP
0F
0F
0F
0F
0F
0F
0F
0F
0F
0F
0F
0F
0F
0F
0F
0F
0F
0F
0F
0F
FF
FF
FE
FC
ENDCHAR

STARTCHAR ldbracelftmid
ENCODING 175
SWIDTH 430 0
DWIDTH 12 0
BBX 8 26 0 -4
BITMAP
0F
0F
0F
0F
0F
0F
0F
0F
0F
1F
3E
7C
F8
F8
7C
3E
1F
0F
0F
0F
0F
0F
0F
0F
0F
0F
ENDCHAR

STARTCHAR ldbracertmid
ENCODING 176
SWIDTH 430 0
DWIDTH 12 0
BBX 8 26 4 -4
BITMAP
F0
F0
F0
F0
F0
F0
F0
F0
F0
F8
7C
3E
1F
1F
3E
7C
F8
F0
F0
F0
F0
F0
F0
F0
F0
F0
ENDCHAR

STARTCHAR ldsigmalfttp
ENCODING 177
SWIDTH 430 0
DWIDTH 12 0
BBX 7 16 5 -6
BITMAP
FE
FE
FE
7E
70
30
38
38
18
1C
1C
0C
0E
0E
06
06
ENDCHAR

STARTCHAR ldsigmalftbt
ENCODING 178
SWIDTH 430 0
DWIDTH 12 0
BBX 7 16 5 6
BITMAP
06
06
0E
0E
0C
1C
1C
18
38
38
30
70
7E
FE
FE
FE
ENDCHAR

STARTCHAR ldbackslash
ENCODING 179
SWIDTH 430 0
DWIDTH 12 0
BBX 12 26 0 -4
BITMAP
C000
C000
E000
E000
7000
7000
3800
3800
1C00
1C00
0C00
0E00
0E00
0700
0700
0380
0380
0380
01C0
01C0
00E0
00E0
0060
0070
0030
0030
ENDCHAR

STARTCHAR ldslash
ENCODING 180
SWIDTH 430 0
DWIDTH 12 0
BBX 12 26 0 -4
BITMAP
0030
0030
0070
0070
00E0
00E0
01C0
01C0
0380
0380
0300
0700
0700
0E00
0E00
1C00
1C00
1C00
3800
3800
7000
7000
6000
E000
C000
C000
ENDCHAR

STARTCHAR ldsigmarttp
ENCODING 181
SWIDTH 430 0
DWIDTH 12 0
BBX 10 6 0 4
BITMAP
FFC0
FFC0
FFC0
FFC0
03C0
03C0
ENDCHAR

STARTCHAR ldsigmartbt
ENCODING 182
SWIDTH 430 0
DWIDTH 12 0
BBX 10 6 0 6
BITMAP
03C0
03C0
FFC0
FFC0
FFC0
FFC0
ENDCHAR

STARTCHAR ldsigmamid
ENCODING 183
SWIDTH 430 0
DWIDTH 12 0
BBX 6 26 0 -4
BITMAP
C0
C0
E0
E0
70
70
30
38
38
1C
1C
1C
0C
0C
0C
1C
1C
18
38
30
30
70
60
E0
C0
C0
ENDCHAR

STARTCHAR lessequal
ENCODING 188
SWIDTH 430 0
DWIDTH 12 0
BBX 9 15 2 0
BITMAP
0F00
1E00
3C00
7800
F000
F000
7800
3C00
1E00
0F00
0000
0000
FF80
FF80
FF80
ENDCHAR

STARTCHAR notequal
ENCODING 189
SWIDTH 430 0
DWIDTH 12 0
BBX 10 12 1 2
BITMAP
0300
0300
FFC0
FFC0
FFC0
0C00
0C00
FFC0
FFC0
FFC0
3000
3000
ENDCHAR

STARTCHAR greaterequal
ENCODING 190
SWIDTH 430 0
DWIDTH 12 0
BBX 9 15 2 0
BITMAP
7800
3C00
1E00
0F00
0780
0780
0F00
1E00
3C00
7800
0000
0000
FF80
FF80
FF80
ENDCHAR

STARTCHAR integral
ENCODING 191
SWIDTH 430 0
DWIDTH 12 0
BBX 11 22 0 -3
BITMAP
0380
07C0
07E0
0E60
0E60
0E00
0E00
0E00
0E00
0E00
0E00
0E00
0E00
0E00
0E00
0E00
0E00
CE00
CE00
FC00
7C00
3800
ENDCHAR

STARTCHAR therefore
ENCODING 192
SWIDTH 430 0
DWIDTH 12 0
BBX 12 12 0 4
BITMAP
0F00
0F00
0F00
0F00
0000
0000
0000
0000
F0F0
F0F0
F0F0
F0F0
ENDCHAR

STARTCHAR proportional
ENCODING 193
SWIDTH 430 0
DWIDTH 12 0
BBX 11 12 1 2
BITMAP
39C0
7FE0
EF60
E700
E700
E700
E700
E700
E700
EF60
7FE0
39C0
ENDCHAR

STARTCHAR infinity
ENCODING 194
SWIDTH 430 0
DWIDTH 12 0
BBX 12 12 0 2
BITMAP
39C0
7FE0
EF70
E670
E670
E670
E670
E670
E670
EF70
7FE0
39C0
ENDCHAR

STARTCHAR divide
ENCODING 195
SWIDTH 430 0
DWIDTH 12 0
BBX 10 13 1 2
BITMAP
1E00
1E00
1E00
0000
0000
FFC0
FFC0
FFC0
0000
0000
1E00
1E00
1E00
ENDCHAR

STARTCHAR Delta
ENCODING 196
SWIDTH 430 0
DWIDTH 12 0
BBX 10 11 1 3
BITMAP
0C00
1E00
3F00
7380
E1C0
C0C0
C0C0
C0C0
FFC0
FFC0
FFC0
ENDCHAR

STARTCHAR gradient
ENCODING 197
SWIDTH 430 0
DWIDTH 12 0
BBX 10 12 1 2
BITMAP
FFC0
FFC0
FFC0
C0C0
C0C0
C0C0
C0C0
E1C0
7380
3F00
1E00
0C00
ENDCHAR

STARTCHAR Phi
ENCODING 198
SWIDTH 430 0
DWIDTH 12 0
BBX 12 16 0 0
BITMAP
3FC0
3FC0
0F00
0F00
3FC0
7FE0
CF30
CF30
CF30
7FE0
3FC0
0F00
0F00
0F00
3FC0
3FC0
ENDCHAR

STARTCHAR Gamma
ENCODING 199
SWIDTH 430 0
DWIDTH 12 0
BBX 11 16 1 0
BITMAP
FFE0
FFE0
3C60
3C60
3C00
3C00
3C00
3C00
3C00
3C00
3C00
3C00
3C00
3C00
FF00
FF00
ENDCHAR

STARTCHAR similar
ENCODING 200
SWIDTH 430 0
DWIDTH 12 0
BBX 11 8 1 5
BITMAP
3060
7860
7C60
FEE0
EFE0
C7C0
C3C0
C180
ENDCHAR

STARTCHAR approxequal
ENCODING 201
SWIDTH 430 0
DWIDTH 12 0
BBX 11 13 1 1
BITMAP
3060
7860
7C60
FEE0
EFE0
C7C0
C3C0
C180
0000
0000
FFE0
FFE0
FFE0
ENDCHAR

STARTCHAR Theta
ENCODING 202
SWIDTH 430 0
DWIDTH 12 0
BBX 10 16 1 0
BITMAP
1E00
3F00
7F80
E1C0
C0C0
C0C0
D2C0
DEC0
DEC0
D2C0
C0C0
C0C0
E1C0
7F80
3F00
1E00
ENDCHAR

STARTCHAR multiply
ENCODING 203
SWIDTH 430 0
DWIDTH 12 0
BBX 10 10 1 3
BITMAP
E1C0
E1C0
7380
3F00
1E00
1E00
3F00
7380
E1C0
E1C0
ENDCHAR

STARTCHAR Lambda
ENCODING 204
SWIDTH 430 0
DWIDTH 12 0
BBX 10 16 1 0
BITMAP
0C00
1E00
1E00
3F00
3300
7380
7380
7380
7380
F3C0
E1C0
E1C0
E1C0
E1C0
E1C0
E1C0
ENDCHAR

STARTCHAR arrowdblboth
ENCODING 205
SWIDTH 430 0
DWIDTH 12 0
BBX 12 18 0 0
BITMAP
1980
1980
39C0
30C0
3FC0
7FE0
7FE0
FFF0
C030
C030
FFF0
7FE0
7FE0
3FC0
30C0
39C0
1980
1980
ENDCHAR

STARTCHAR arrowdblright
ENCODING 206
SWIDTH 430 0
DWIDTH 12 0
BBX 10 18 1 0
BITMAP
0C00
0C00
0600
0600
FF00
FF00
FF80
FF80
01C0
01C0
FF80
FF80
FF00
FF00
0600
0600
0C00
0C00
ENDCHAR

STARTCHAR equivalence
ENCODING 207
SWIDTH 430 0
DWIDTH 12 0
BBX 10 15 1 1
BITMAP
FFC0
FFC0
FFC0
0000
0000
0000
FFC0
FFC0
FFC0
0000
0000
0000
FFC0
FFC0
FFC0
ENDCHAR

STARTCHAR Pi
ENCODING 208
SWIDTH 430 0
DWIDTH 12 0
BBX 12 16 0 0
BITMAP
FFF0
FFF0
FFF0
FFF0
39C0
39C0
39C0
39C0
39C0
39C0
39C0
39C0
39C0
39C0
39C0
39C0
ENDCHAR

STARTCHAR Psi
ENCODING 209
SWIDTH 430 0
DWIDTH 12 0
BBX 11 16 1 0
BITMAP
C060
C060
CE60
CE60
CE60
CE60
CE60
CE60
CE60
CE60
7FC0
3F80
0E00
0E00
3F80
3F80
ENDCHAR

STARTCHAR Sigma
ENCODING 211
SWIDTH 430 0
DWIDTH 12 0
BBX 9 16 2 0
BITMAP
FF80
FF80
FF80
F180
7980
3C00
1E00
0F00
1E00
3C00
7800
F180
E180
FF80
FF80
FF80
ENDCHAR

STARTCHAR radical
ENCODING 214
SWIDTH 430 0
DWIDTH 12 0
BBX 12 18 0 0
BITMAP
0070
0070
0070
00F0
00F0
00E0
01E0
01E0
01E0
E1C0
E3C0
F3C0
F3C0
7F80
3F80
3F80
0F00
0700
ENDCHAR

STARTCHAR Omega
ENCODING 215
SWIDTH 430 0
DWIDTH 12 0
BBX 10 16 1 0
BITMAP
3F00
7F80
7F80
F3C0
E1C0
E1C0
E1C0
E1C0
E1C0
7380
7380
3300
F3C0
F3C0
F3C0
F3C0
ENDCHAR

STARTCHAR Xi
ENCODING 216
SWIDTH 430 0
DWIDTH 12 0
BBX 10 16 1 0
BITMAP
FFC0
FFC0
FFC0
FFC0
0000
0000
3F00
3F00
3F00
3F00
0000
0000
FFC0
FFC0
FFC0
FFC0
ENDCHAR

STARTCHAR Upsilon1
ENCODING 217
SWIDTH 430 0
DWIDTH 12 0
BBX 10 16 1 0
BITMAP
E1C0
E1C0
E1C0
E1C0
E1C0
F3C0
7380
7F80
3F00
1E00
1E00
1E00
1E00
1E00
1E00
1E00
ENDCHAR

STARTCHAR propersubset
ENCODING 218
SWIDTH 430 0
DWIDTH 12 0
BBX 10 13 1 2
BITMAP
1FC0
7FC0
7FC0
F000
E000
E000
E000
E000
E000
F000
7FC0
7FC0
1FC0
ENDCHAR

STARTCHAR propersuperset
ENCODING 219
SWIDTH 430 0
DWIDTH 12 0
BBX 10 13 1 2
BITMAP
FE00
FF80
FF80
03C0
01C0
01C0
01C0
01C0
01C0
03C0
FF80
FF80
FE00
ENDCHAR

STARTCHAR intersection
ENCODING 220
SWIDTH 430 0
DWIDTH 12 0
BBX 11 13 1 1
BITMAP
1F00
7FC0
7FC0
F1E0
E0E0
E0E0
E0E0
E0E0
E0E0
E0E0
E0E0
E0E0
E0E0
ENDCHAR

STARTCHAR union
ENCODING 221
SWIDTH 430 0
DWIDTH 12 0
BBX 11 13 1 1
BITMAP
E0E0
E0E0
E0E0
E0E0
E0E0
E0E0
E0E0
E0E0
E0E0
F1E0
7FC0
7FC0
1F00
ENDCHAR

STARTCHAR logicaland
ENCODING 222
SWIDTH 430 0
DWIDTH 12 0
BBX 10 13 1 2
BITMAP
0C00
1E00
3F00
7F80
7F80
F3C0
F3C0
E1C0
E1C0
E1C0
E1C0
E1C0
E1C0
ENDCHAR

STARTCHAR logicalor
ENCODING 223
SWIDTH 430 0
DWIDTH 12 0
BBX 10 13 1 2
BITMAP
E1C0
E1C0
E1C0
E1C0
E1C0
E1C0
F3C0
7380
7F80
7F80
3F00
1E00
0C00
ENDCHAR

STARTCHAR logicalnot
ENCODING 224
SWIDTH 430 0
DWIDTH 12 0
BBX 10 5 1 6
BITMAP
FFC0
FFC0
FFC0
03C0
03C0
ENDCHAR

STARTCHAR alpha
ENCODING 225
SWIDTH 430 0
DWIDTH 12 0
BBX 11 12 1 0
BITMAP
3E60
7FE0
F7E0
E380
E380
E380
E380
E380
E380
F7E0
7FE0
3E60
ENDCHAR

STARTCHAR beta
ENCODING 226
SWIDTH 430 0
DWIDTH 12 0
BBX 12 20 0 -2
BITMAP
03E0
07F0
07F0
0E30
0E30
1C70
1CE0
1FC0
1F80
3FC0
39C0
39C0
39C0
71C0
71C0
7380
FF80
FF00
C000
C000
ENDCHAR

STARTCHAR chi
ENCODING 227
SWIDTH 430 0
DWIDTH 12 0
BBX 12 16 0 -4
BITMAP
7070
70F0
70E0
39E0
39C0
1F80
1F00
0F00
1F80
3F80
39C0
71C0
70E0
E0E0
E0E0
E0E0
ENDCHAR

STARTCHAR delta
ENCODING 228
SWIDTH 430 0
DWIDTH 12 0
BBX 10 16 1 0
BITMAP
0F00
1FC0
39C0
3800
1C00
3F00
7F80
F3C0
E1C0
E1C0
E1C0
E1C0
E1C0
F3C0
7F80
3F00
ENDCHAR

STARTCHAR epsilon
ENCODING 229
SWIDTH 430 0
DWIDTH 12 0
BBX 10 12 1 0
BITMAP
3FC0
7FC0
7FC0
E000
E000
FF00
FF00
E000
E000
7FC0
7FC0
3FC0
ENDCHAR

STARTCHAR phi
ENCODING 230
SWIDTH 430 0
DWIDTH 12 0
BBX 10 18 1 -3
BITMAP
00C0
00C0
0180
1F80
7F80
7F80
E7C0
E5C0
EDC0
E9C0
E9C0
F9C0
7F80
7F80
7E00
6000
C000
C000
ENDCHAR

STARTCHAR gamma
ENCODING 231
SWIDTH 430 0
DWIDTH 12 0
BBX 12 17 0 -4
BITMAP
1800
F870
FC70
3C70
1C70
1E70
1EE0
0EE0
0FC0
07C0
0780
0780
0F00
0E00
1C00
3C00
3800
ENDCHAR

STARTCHAR eta
ENCODING 232
SWIDTH 430 0
DWIDTH 12 0
BBX 11 16 0 -4
BITMAP
E780
EFC0
7FE0
79E0
70E0
70E0
70E0
70E0
70E0
70E0
70E0
70E0
00E0
00E0
00E0
00E0
ENDCHAR

STARTCHAR iota
ENCODING 233
SWIDTH 430 0
DWIDTH 12 0
BBX 10 12 2 0
BITMAP
E000
E000
E000
E000
E000
E0C0
E0C0
E0C0
F1C0
7FC0
7F80
1E00
ENDCHAR

STARTCHAR theta
ENCODING 234
SWIDTH 430 0
DWIDTH 12 0
BBX 10 16 1 0
BITMAP
3F00
7F80
7380
E1C0
E1C0
E1C0
FFC0
FFC0
E1C0
E1C0
E1C0
E1C0
E1C0
7380
7F80
3F00
ENDCHAR

STARTCHAR kappa
ENCODING 235
SWIDTH 430 0
DWIDTH 12 0
BBX 11 12 1 0
BITMAP
E0E0
F1E0
71C0
7380
7780
7F00
7E00
7F00
7780
73C0
73C0
71E0
ENDCHAR

STARTCHAR lambda
ENCODING 236
SWIDTH 430 0
DWIDTH 12 0
BBX 10 16 1 0
BITMAP
F000
7000
7800
3800
3C00
1C00
1E00
1E00
3F00
3F00
3B80
7380
73C0
F1C0
E1C0
E1C0
ENDCHAR

STARTCHAR nu
ENCODING 238
SWIDTH 430 0
DWIDTH 12 0
BBX 10 12 1 0
BITMAP
E1C0
F1C0
71C0
71C0
71C0
71C0
71C0
73C0
7380
3F80
3F00
1C00
ENDCHAR

STARTCHAR partialdiff
ENCODING 239
SWIDTH 430 0
DWIDTH 12 0
BBX 10 17 1 0
BITMAP
3800
7E00
FF00
C700
0380
0F80
3FC0
7FC0
73C0
E1C0
E1C0
E1C0
E1C0
F380
7F80
7F80
1E00
ENDCHAR

STARTCHAR pi
ENCODING 240
SWIDTH 430 0
DWIDTH 12 0
BBX 12 12 0 0
BITMAP
FFF0
FFF0
39C0
39C0
39C0
39C0
39C0
39C0
39C0
39C0
F1C0
E1C0
ENDCHAR

STARTCHAR psi
ENCODING 241
SWIDTH 430 0
DWIDTH 12 0
BBX 12 16 0 -2
BITMAP
0600
0600
E670
E670
E670
E670
E670
E670
E670
E670
E670
7FE0
3FC0
0600
0600
0600
ENDCHAR

STARTCHAR rho
ENCODING 242
SWIDTH 430 0
DWIDTH 12 0
BBX 10 15 1 -3
BITMAP
1F00
7F80
7F80
F3C0
E1C0
E1C0
E1C0
F3C0
FF80
FF80
EF00
E000
E000
E000
E000
ENDCHAR

STARTCHAR sigma
ENCODING 243
SWIDTH 430 0
DWIDTH 12 0
BBX 10 13 1 0
BITMAP
1FC0
1FC0
7FC0
7F00
F380
E1C0
E1C0
E1C0
E1C0
F3C0
7F80
7F80
1E00
ENDCHAR

STARTCHAR tau
ENCODING 244
SWIDTH 430 0
DWIDTH 12 0
BBX 11 14 1 0
BITMAP
0060
0060
3FE0
7FC0
FF80
CE00
CE00
0E00
0E00
0E00
0E00
0E00
0F80
0780
ENDCHAR

STARTCHAR florin
ENCODING 246
SWIDTH 430 0
DWIDTH 12 0
BBX 11 21 1 -3
BITMAP
0380
07C0
07E0
0E60
0E60
0E00
0E00
7FC0
7FC0
0E00
0E00
0E00
0E00
0E00
0E00
0E00
CE00
CE00
FC00
7C00
3800
ENDCHAR

STARTCHAR omega
ENCODING 247
SWIDTH 430 0
DWIDTH 12 0
BBX 12 12 0 0
BITMAP
30C0
70E0
70E0
E070
E070
E670
E670
E670
E670
7FE0
7FE0
39C0
ENDCHAR

STARTCHAR xi
ENCODING 248
SWIDTH 430 0
DWIDTH 12 0
BBX 10 23 1 -3
BITMAP
6000
E000
C000
FF80
7FC0
3FC0
78C0
7000
7000
7800
3F80
7F80
7000
E000
E000
E000
F000
FF80
7FC0
1FC0
01C0
0780
0700
ENDCHAR

STARTCHAR upsilon
ENCODING 249
SWIDTH 430 0
DWIDTH 12 0
BBX 11 12 0 0
BITMAP
71C0
F9C0
B8E0
38E0
38E0
38E0
38E0
38E0
38E0
3DE0
1FC0
0F80
ENDCHAR

STARTCHAR zeta
ENCODING 250
SWIDTH 430 0
DWIDTH 12 0
BBX 10 24 1 -3
BITMAP
3000
7000
6000
7180
3FC0
1FC0
03C0
0780
0F00
1E00
1C00
3C00
7800
7000
F000
E000
E000
F000
FF80
FFC0
7FC0
01C0
0780
0700
ENDCHAR

STARTCHAR arrowleft
ENCODING 251
SWIDTH 430 0
DWIDTH 12 0
BBX 11 13 1 2
BITMAP
0200
0600
0E00
1E00
3E00
7FE0
FFE0
7FE0
3E00
1E00
0E00
0600
0200
ENDCHAR

STARTCHAR arrowup
ENCODING 252
SWIDTH 430 0
DWIDTH 12 0
BBX 11 15 1 1
BITMAP
0400
0E00
1F00
3F80
7FC0
FFE0
1F00
1F00
1F00
1F00
1F00
1F00
1F00
1F00
1F00
ENDCHAR

STARTCHAR arrowright
ENCODING 253
SWIDTH 430 0
DWIDTH 12 0
BBX 11 13 0 2
BITMAP
0800
0C00
0E00
0F00
0F80
FFC0
FFE0
FFC0
0F80
0F00
0E00
0C00
0800
ENDCHAR

STARTCHAR arrowdown
ENCODING 254
SWIDTH 430 0
DWIDTH 12 0
BBX 11 15 1 1
BITMAP
1F00
1F00
1F00
1F00
1F00
1F00
1F00
1F00
1F00
FFE0
7FC0
3F80
1F00
0E00
0400
ENDCHAR
ENDFONT
